# xmcd
#
# Track frame offsets: 
#        150
#        19230
#        38047
#        58779
#        72235
#        89865
#        101393
#        116967
#        131495
#        150173
#        178709
#        184297
#
# Disc length: 2991 seconds
#
# Revision: 0
# Processed by: cddbd v1.5.2PL0 Copyright (c) Steve Scherf et al.
# Submitted via: ExactAudioCopy v1.0b1
#
DISCID=a50bad0c
DTITLE=Land and Hildebrand - Ballads Babies and Barbeque
DYEAR=2002
DGENRE=Country
TTITLE0=Love Goes Round and Round
TTITLE1=The Ballad of Millie and Joe
TTITLE2=If We Dont Sing
TTITLE3=Hang Up and Drive
TTITLE4=The Dog Song
TTITLE5=The Cat Song
TTITLE6=Barbeque
TTITLE7=Aint Nobody Lookin
TTITLE8=I Know Now
TTITLE9=I Love You I Do You Bet
TTITLE10=If We Dont Sing Reprise
TTITLE11=bonus track
EXTD=
EXTT0=
EXTT1=
EXTT2=
EXTT3=
EXTT4=
EXTT5=
EXTT6=
EXTT7=
EXTT8=
EXTT9=
EXTT10=
EXTT11=
PLAYORDER=
